<svg width="77" height="77" viewBox="0 0 77 77" fill="none" xmlns="http://www.w3.org/2000/svg">
<rect width="77" height="77" rx="10" fill="#2D929A"/>
<path d="M38 14.4375C25.008 14.4375 14.4375 25.008 14.4375 38C14.4375 50.992 25.008 61.5625 38 61.5625C50.992 61.5625 61.5625 50.992 61.5625 38C61.5625 25.008 50.992 14.4375 38 14.4375ZM35.9609 18.1767C36.0334 18.1676 36.1132 18.1821 36.1875 18.1767V19.875H39.8125V18.1749C44.4501 18.5898 48.7945 20.6208 52.0869 23.9131C55.3792 27.2055 57.4102 31.5499 57.8251 36.1875H56.125V39.8125H57.8251C57.4102 44.4501 55.3792 48.7945 52.0869 52.0869C48.7945 55.3792 44.4501 57.4102 39.8125 57.8251V56.125H36.1875V57.8251C31.5499 57.4102 27.2055 55.3792 23.9131 52.0869C20.6208 48.7945 18.5898 44.4501 18.1749 39.8125H19.875V36.1875H18.1749C19.0304 26.6846 26.4888 19.1319 35.9609 18.1749V18.1767ZM49.0472 26.9546L33.6409 33.6391L26.9528 49.0454L42.3591 42.3609L49.0472 26.9546ZM38 35.2812C39.45 35.2812 40.7188 36.55 40.7188 38C40.7188 39.45 39.45 40.7188 38 40.7188C36.55 40.7188 35.2812 39.45 35.2812 38C35.2812 36.55 36.55 35.2812 38 35.2812Z" fill="white"/>
</svg>
