<svg width="69" height="13" viewBox="0 0 69 13" fill="none" xmlns="http://www.w3.org/2000/svg">
<path d="M11.5286 4.4827L8.30525 4.01424L6.86433 1.09305C6.82498 1.01307 6.76023 0.94832 6.68025 0.908965C6.47966 0.809941 6.23591 0.892461 6.13562 1.09305L4.6947 4.01424L1.47136 4.4827C1.38249 4.49539 1.30124 4.53729 1.23903 4.60076C1.16383 4.67806 1.12239 4.78205 1.12382 4.88989C1.12524 4.99773 1.16942 5.10058 1.24665 5.17586L3.57878 7.44959L3.0278 10.6602C3.01488 10.7349 3.02315 10.8117 3.05166 10.882C3.08017 10.9522 3.12779 11.013 3.18912 11.0576C3.25045 11.1021 3.32303 11.1286 3.39863 11.134C3.47424 11.1394 3.54984 11.1235 3.61687 11.0881L6.49997 9.57225L9.38308 11.0881C9.46179 11.13 9.5532 11.1439 9.6408 11.1287C9.8617 11.0906 10.0102 10.8811 9.97215 10.6602L9.42117 7.44959L11.7533 5.17586C11.8168 5.11365 11.8587 5.0324 11.8714 4.94354C11.9056 4.72137 11.7508 4.5157 11.5286 4.4827Z" fill="#FFD80C"/>
<path d="M25.5286 4.4827L22.3053 4.01424L20.8643 1.09305C20.825 1.01307 20.7602 0.94832 20.6802 0.908965C20.4797 0.809941 20.2359 0.892461 20.1356 1.09305L18.6947 4.01424L15.4714 4.4827C15.3825 4.49539 15.3012 4.53729 15.239 4.60076C15.1638 4.67806 15.1224 4.78205 15.1238 4.88989C15.1252 4.99773 15.1694 5.10058 15.2467 5.17586L17.5788 7.44959L17.0278 10.6602C17.0149 10.7349 17.0231 10.8117 17.0517 10.882C17.0802 10.9522 17.1278 11.013 17.1891 11.0576C17.2504 11.1021 17.323 11.1286 17.3986 11.134C17.4742 11.1394 17.5498 11.1235 17.6169 11.0881L20.5 9.57225L23.3831 11.0881C23.4618 11.13 23.5532 11.1439 23.6408 11.1287C23.8617 11.0906 24.0102 10.8811 23.9721 10.6602L23.4212 7.44959L25.7533 5.17586C25.8168 5.11365 25.8587 5.0324 25.8714 4.94354C25.9056 4.72137 25.7508 4.5157 25.5286 4.4827Z" fill="#FFD80C"/>
<path d="M39.5286 4.4827L36.3053 4.01424L34.8643 1.09305C34.825 1.01307 34.7602 0.94832 34.6802 0.908965C34.4797 0.809941 34.2359 0.892461 34.1356 1.09305L32.6947 4.01424L29.4714 4.4827C29.3825 4.49539 29.3012 4.53729 29.239 4.60076C29.1638 4.67806 29.1224 4.78205 29.1238 4.88989C29.1252 4.99773 29.1694 5.10058 29.2467 5.17586L31.5788 7.44959L31.0278 10.6602C31.0149 10.7349 31.0231 10.8117 31.0517 10.882C31.0802 10.9522 31.1278 11.013 31.1891 11.0576C31.2504 11.1021 31.323 11.1286 31.3986 11.134C31.4742 11.1394 31.5498 11.1235 31.6169 11.0881L34.5 9.57225L37.3831 11.0881C37.4618 11.13 37.5532 11.1439 37.6408 11.1287C37.8617 11.0906 38.0102 10.8811 37.9721 10.6602L37.4212 7.44959L39.7533 5.17586C39.8168 5.11365 39.8587 5.0324 39.8714 4.94354C39.9056 4.72137 39.7508 4.5157 39.5286 4.4827Z" fill="#FFD80C"/>
<path d="M53.5286 4.4827L50.3053 4.01424L48.8643 1.09305C48.825 1.01307 48.7602 0.94832 48.6802 0.908965C48.4797 0.809941 48.2359 0.892461 48.1356 1.09305L46.6947 4.01424L43.4714 4.4827C43.3825 4.49539 43.3012 4.53729 43.239 4.60076C43.1638 4.67806 43.1224 4.78205 43.1238 4.88989C43.1252 4.99773 43.1694 5.10058 43.2467 5.17586L45.5788 7.44959L45.0278 10.6602C45.0149 10.7349 45.0231 10.8117 45.0517 10.882C45.0802 10.9522 45.1278 11.013 45.1891 11.0576C45.2504 11.1021 45.323 11.1286 45.3986 11.134C45.4742 11.1394 45.5498 11.1235 45.6169 11.0881L48.5 9.57225L51.3831 11.0881C51.4618 11.13 51.5532 11.1439 51.6408 11.1287C51.8617 11.0906 52.0102 10.8811 51.9721 10.6602L51.4212 7.44959L53.7533 5.17586C53.8168 5.11365 53.8587 5.0324 53.8714 4.94354C53.9056 4.72137 53.7508 4.5157 53.5286 4.4827Z" fill="#FFD80C"/>
<path d="M67.5286 4.4827L64.3053 4.01424L62.8644 1.09305C62.825 1.01307 62.7603 0.94832 62.6803 0.908965C62.4797 0.809941 62.2359 0.892461 62.1356 1.09305L60.6947 4.01424L57.4714 4.4827C57.3825 4.49539 57.3013 4.53729 57.2391 4.60076C57.1639 4.67806 57.1224 4.78205 57.1238 4.88989C57.1253 4.99773 57.1695 5.10058 57.2467 5.17586L59.5788 7.44959L59.0278 10.6602C59.0149 10.7349 59.0232 10.8117 59.0517 10.882C59.0802 10.9522 59.1278 11.013 59.1892 11.0576C59.2505 11.1021 59.3231 11.1286 59.3987 11.134C59.4743 11.1394 59.5499 11.1235 59.6169 11.0881L62.5 9.57225L65.3831 11.0881C65.4618 11.13 65.5532 11.1439 65.6408 11.1287C65.8617 11.0906 66.0103 10.8811 65.9722 10.6602L65.4212 7.44959L67.7533 5.17586C67.8168 5.11365 67.8587 5.0324 67.8714 4.94354C67.9057 4.72137 67.7508 4.5157 67.5286 4.4827Z" fill="#DCDCDC"/>
</svg>
