<svg width="24" height="24" viewBox="0 0 24 24" fill="none" xmlns="http://www.w3.org/2000/svg">
<path d="M17.4752 1.64062C15.5752 1.64062 13.7732 2.46698 12.5312 3.90765C12.529 3.91003 12.5266 3.91223 12.5246 3.91461C12.5222 3.91718 12.5204 3.91992 12.518 3.92249L8.42508 8.40802C8.06363 8.80426 8.24691 9.22192 8.31173 9.34058C8.37729 9.46033 8.63253 9.84393 9.16684 9.75275C11.3311 9.38306 13.3706 8.25348 15.2284 6.39569C15.5023 6.12177 15.9463 6.12177 16.2202 6.39569L22.652 12.8275C23.4676 11.4423 23.9998 9.88129 23.9998 8.16559C23.9998 8.16449 24 8.16357 24 8.16266C23.9984 4.5661 21.072 1.64062 17.4752 1.64062V1.64062Z" fill="#2D929A"/>
<path d="M9.40283 11.1352C9.27228 11.1575 9.14209 11.1685 9.01392 11.1685C8.211 11.1685 7.47858 10.7408 7.08087 10.0131C6.62146 9.1723 6.74231 8.17126 7.38885 7.46265L11.0424 3.45868C9.83203 2.29688 8.21741 1.64062 6.52478 1.64062C2.92712 1.64062 0 4.56775 0 8.16559C0 8.23224 0.000732422 8.29852 0.00238037 8.36481C0.00311279 8.39246 0.00439453 8.41992 0.00531005 8.44757C0.00677489 8.48602 0.00769041 8.52448 0.00952148 8.56274C0.0111694 8.59717 0.0135498 8.63141 0.0157471 8.66565C0.0175781 8.69678 0.019043 8.72809 0.0212402 8.75903C0.024353 8.80151 0.0281982 8.84363 0.0318604 8.88574C0.0338745 8.90845 0.0355224 8.93134 0.0377197 8.95404C0.0380859 8.95789 0.0384521 8.96173 0.0388184 8.96558C0.181274 10.4344 0.706787 11.7806 1.44525 12.9899C1.81439 12.6242 2.29193 12.394 2.81598 12.3349C3.43268 12.2655 4.03894 12.4402 4.5238 12.8269C4.91144 13.136 5.17291 13.545 5.30255 13.9883C6.00787 13.7765 6.80255 13.9017 7.42072 14.3947C7.87903 14.7601 8.16138 15.265 8.25696 15.8011C8.87787 15.7039 9.53595 15.8566 10.0649 16.2783C10.4601 16.5934 10.7241 17.0121 10.851 17.4653C10.9717 17.4315 11.0958 17.4066 11.2229 17.3923C11.8391 17.3227 12.4455 17.4976 12.9305 17.8843C13.6855 18.4863 13.9645 19.467 13.7137 20.3423C14.8802 19.7554 16.4268 18.8881 17.9601 17.7612C19.2766 16.7937 20.7138 15.5328 21.856 14.0151L15.7141 7.87317C13.7807 9.65314 11.6605 10.7496 9.40283 11.1352V11.1352Z" fill="#2D929A"/>
<path d="M3.64931 13.9233C3.48489 13.7922 3.28512 13.7227 3.07784 13.7227C3.04305 13.7227 3.00808 13.7247 2.97311 13.7287C2.72903 13.7562 2.5104 13.877 2.35732 14.0689L0.951805 15.8313C0.635765 16.2275 0.701133 16.8073 1.09737 17.1233C1.28945 17.2764 1.5295 17.3454 1.77358 17.3181C2.01766 17.2907 2.23629 17.1698 2.38937 16.9777L3.79488 15.2155C4.11092 14.8191 4.04555 14.2396 3.64931 13.9233Z" fill="#2D929A"/>
<path d="M6.54623 15.4913C6.37741 15.3565 6.17508 15.2911 5.97403 15.2911C5.70358 15.2911 5.4357 15.4094 5.25424 15.6368L3.84891 17.399C3.69583 17.5911 3.62662 17.8312 3.65408 18.0753C3.68155 18.3193 3.8024 18.538 3.99448 18.691C4.18637 18.8443 4.42642 18.9133 4.6705 18.8859C4.91458 18.8584 5.13321 18.7375 5.28647 18.5456L6.6918 16.7833C7.00803 16.387 6.94266 15.8073 6.54623 15.4913V15.4913Z" fill="#2D929A"/>
<path d="M9.33603 18.6669C9.4891 18.475 9.55832 18.2347 9.53085 17.9907C9.50339 17.7468 9.38254 17.528 9.19046 17.3749C9.02145 17.2401 8.81912 17.1746 8.61807 17.1746C8.34781 17.1746 8.07974 17.293 7.89847 17.5204L6.49295 19.2826C6.33987 19.4747 6.27066 19.7148 6.29813 19.9589C6.32577 20.2029 6.44662 20.4216 6.63852 20.5746C6.8306 20.7277 7.07083 20.7971 7.31473 20.7695C7.55881 20.742 7.77743 20.6211 7.93051 20.4291L9.33603 18.6669Z" fill="#2D929A"/>
<path d="M12.056 18.981C11.8916 18.8497 11.6919 18.7803 11.4846 18.7803C11.4498 18.7803 11.415 18.7821 11.3798 18.7861C11.1359 18.8136 10.9171 18.9344 10.7641 19.1265L9.35854 20.8887C9.0425 21.2852 9.10787 21.8647 9.50411 22.1807C9.69619 22.3338 9.93661 22.403 10.1803 22.3755C10.4244 22.3481 10.643 22.2272 10.7961 22.0352L12.2016 20.2729C12.5177 19.8765 12.4523 19.297 12.056 18.981Z" fill="#2D929A"/>
</svg>
