<svg width="24" height="24" viewBox="0 0 24 24" fill="none" xmlns="http://www.w3.org/2000/svg">
<path d="M17.4752 1.64062C15.5751 1.64062 13.7732 2.46698 12.5312 3.90765C12.529 3.91003 12.5266 3.91223 12.5246 3.91461C12.5222 3.91718 12.5204 3.91992 12.518 3.92249L8.42505 8.40802C8.0636 8.80426 8.24689 9.22192 8.31171 9.34058C8.37726 9.46033 8.63251 9.84393 9.16681 9.75275C11.3311 9.38306 13.3705 8.25348 15.2283 6.39569C15.5023 6.12177 15.9463 6.12177 16.2202 6.39569L22.652 12.8275C23.4675 11.4423 23.9998 9.88129 23.9998 8.16559C23.9998 8.16449 24 8.16357 24 8.16266C23.9984 4.5661 21.072 1.64062 17.4752 1.64062Z" fill="#C8C8C8"/>
<path d="M9.40283 11.1352C9.27228 11.1575 9.14209 11.1685 9.01392 11.1685C8.211 11.1685 7.47858 10.7408 7.08087 10.0131C6.62146 9.1723 6.74231 8.17126 7.38885 7.46265L11.0424 3.45868C9.83203 2.29688 8.21741 1.64062 6.52478 1.64062C2.92712 1.64062 0 4.56775 0 8.16559C0 8.23224 0.000732422 8.29852 0.00238037 8.36481C0.00311279 8.39246 0.00439453 8.41992 0.00531005 8.44757C0.00677489 8.48602 0.00769041 8.52448 0.00952148 8.56274C0.0111694 8.59717 0.0135498 8.63141 0.0157471 8.66565C0.0175781 8.69678 0.019043 8.72809 0.0212402 8.75903C0.024353 8.80151 0.0281982 8.84363 0.0318604 8.88574C0.0338745 8.90845 0.0355224 8.93134 0.0377197 8.95404C0.0380859 8.95789 0.0384521 8.96173 0.0388184 8.96558C0.181274 10.4344 0.706787 11.7806 1.44525 12.9899C1.81439 12.6242 2.29193 12.394 2.81598 12.3349C3.43268 12.2655 4.03894 12.4402 4.5238 12.8269C4.91144 13.136 5.17291 13.545 5.30255 13.9883C6.00787 13.7765 6.80255 13.9017 7.42072 14.3947C7.87903 14.7601 8.16138 15.265 8.25696 15.8011C8.87787 15.7039 9.53595 15.8566 10.0649 16.2783C10.4601 16.5934 10.7241 17.0121 10.851 17.4653C10.9717 17.4315 11.0958 17.4066 11.2229 17.3923C11.8391 17.3227 12.4455 17.4976 12.9305 17.8843C13.6855 18.4863 13.9645 19.467 13.7137 20.3423C14.8802 19.7554 16.4268 18.8881 17.9601 17.7612C19.2766 16.7937 20.7138 15.5328 21.856 14.0151L15.7141 7.87317C13.7807 9.65314 11.6605 10.7496 9.40283 11.1352Z" fill="#C8C8C8"/>
<path d="M3.6493 13.9233C3.48487 13.7922 3.2851 13.7227 3.07783 13.7227C3.04304 13.7227 3.00806 13.7247 2.97309 13.7287C2.72901 13.7562 2.51038 13.877 2.35731 14.0689L0.951789 15.8313C0.635749 16.2275 0.701118 16.8073 1.09736 17.1233C1.28944 17.2764 1.52949 17.3454 1.77357 17.3181C2.01765 17.2907 2.23627 17.1698 2.38935 16.9777L3.79487 15.2155C4.11091 14.8191 4.04554 14.2396 3.6493 13.9233Z" fill="#C8C8C8"/>
<path d="M6.5462 15.4913C6.37738 15.3565 6.17505 15.2911 5.974 15.2911C5.70355 15.2911 5.43567 15.4094 5.25421 15.6368L3.84888 17.399C3.6958 17.5911 3.62659 17.8312 3.65405 18.0753C3.68152 18.3193 3.80237 18.538 3.99445 18.691C4.18634 18.8443 4.42639 18.9133 4.67047 18.8859C4.91455 18.8584 5.13318 18.7375 5.28644 18.5456L6.69177 16.7833C7.008 16.387 6.94263 15.8073 6.5462 15.4913Z" fill="#C8C8C8"/>
<path d="M9.336 18.6669C9.48907 18.475 9.55829 18.2347 9.53082 17.9907C9.50336 17.7468 9.38251 17.528 9.19043 17.3749C9.02142 17.2401 8.81909 17.1746 8.61804 17.1746C8.34778 17.1746 8.07971 17.293 7.89844 17.5204L6.49292 19.2826C6.33984 19.4747 6.27063 19.7148 6.2981 19.9589C6.32574 20.2029 6.44659 20.4216 6.63849 20.5746C6.83057 20.7277 7.0708 20.7971 7.3147 20.7695C7.55878 20.742 7.7774 20.6211 7.93048 20.4291L9.336 18.6669Z" fill="#C8C8C8"/>
<path d="M12.056 18.9809C11.8916 18.8496 11.6918 18.7802 11.4846 18.7802C11.4498 18.7802 11.415 18.782 11.3798 18.7861C11.1359 18.8135 10.9171 18.9344 10.764 19.1265L9.35852 20.8887C9.04248 21.2851 9.10785 21.8646 9.50409 22.1807C9.69617 22.3337 9.93658 22.403 10.1803 22.3755C10.4244 22.348 10.643 22.2272 10.7961 22.0351L12.2016 20.2729C12.5176 19.8765 12.4523 19.2969 12.056 18.9809Z" fill="#C8C8C8"/>
</svg>
