<svg width="14" height="14" viewBox="0 0 14 14" fill="none" xmlns="http://www.w3.org/2000/svg">
<path fill-rule="evenodd" clip-rule="evenodd" d="M6.99998 0.583374C10.5438 0.583374 13.4166 3.45621 13.4166 7.00004C13.4166 10.5439 10.5438 13.4167 6.99998 13.4167C3.45615 13.4167 0.583313 10.5439 0.583313 7.00004C0.583313 3.45621 3.45615 0.583374 6.99998 0.583374ZM6.99998 1.75004C4.10049 1.75004 1.74998 4.10055 1.74998 7.00004C1.74998 9.89954 4.10049 12.25 6.99998 12.25C9.89948 12.25 12.25 9.89954 12.25 7.00004C12.25 4.10055 9.89948 1.75004 6.99998 1.75004ZM6.99998 2.91671C7.32214 2.91671 7.58331 3.17787 7.58331 3.50004V6.71474L9.98311 8.58125C10.2374 8.77904 10.2832 9.14554 10.0854 9.39984C9.88764 9.65414 9.52115 9.69995 9.26685 9.50216L6.64185 7.4605C6.49975 7.34998 6.41665 7.18005 6.41665 7.00004V3.50004C6.41665 3.17787 6.67781 2.91671 6.99998 2.91671Z" fill="#188866"/>
</svg>
